<svg xmlns="http://www.w3.org/2000/svg" width="1000" height="520" viewBox="0 0 1000 520"><circle cx="310.2" cy="151.7" r="91" fill="#bdffd9" stroke="#7ba68d" stroke-miterlimit="10" stroke-width="4"/><path fill="#bdffd9" stroke="#512500" stroke-linecap="round" stroke-linejoin="round" stroke-width="4" d="M250.2 108.1l11.2 7.5m25.5 85.3l-7.5 11.2m73.8-98.4l-7.5 11.3m31.9 30.9l7.5 8.4m-82.6 45.6l7.5 8.4m10.2-133l7.4 8.4M343 166l-13.8 11.7m48.8-62.1l-12.7 17.5m-97.9 52.1l-12.8 17.4m47.7-78.1l7.9 6.6m39.3 66.5l7.9 6.5M239 151.7l16.8 8.4m30.8-4.2l-6.9 10.1m3.4-87.8l14.9 9.3"/><path fill="#f0de7f" stroke="#70683f" stroke-linecap="round" stroke-linejoin="round" stroke-width="4" d="M121.1 262.9l81.1-222.5H40l81.1 222.5z"/><path fill="#70683f" d="M89.7 106.9L95.1 96l-7.6-3.3-5.5 10.9-7.5-3.3L80 89.4 72.3 86l2.8-6.4 8 3.5 6.2-12.3-8.6-3.8 2.8-6.4 9 3.9L98 53.6l7.5 3.3-5.6 10.9 7.7 3.4 5.4-10.9 7.5 3.3-5.5 10.8 7.7 3.4-2.8 6.4-8-3.5-6.2 12.3 8.6 3.8-2.8 6.4-9-3.9-5.5 10.9zm8.5-17.1l6.2-12.3-7.6-3.5-6.1 12.4z"/><circle cx="535.3" cy="151.7" r="91" fill="#947b65" stroke="#512500" stroke-miterlimit="10" stroke-width="4"/><circle cx="512.9" cy="95.7" r="5.2" fill="#512500"/><circle cx="535.3" cy="76.5" r="5.2" fill="#512500"/><circle cx="532.9" cy="142" r="5.2" fill="#512500"/><circle cx="465.4" cy="188.9" r="5.2" fill="#512500"/><circle cx="501.7" cy="177.2" r="5.2" fill="#512500"/><circle cx="498.9" cy="216.4" r="5.2" fill="#512500"/><circle cx="575.4" cy="151.7" r="5.2" fill="#512500"/><circle cx="475.3" cy="136.9" r="5.2" fill="#512500"/><circle cx="532.7" cy="206.1" r="5.2" fill="#512500"/><circle cx="558.1" cy="100.9" r="5.2" fill="#512500"/><circle cx="595.8" cy="120.5" r="5.2" fill="#512500"/><circle cx="615.2" cy="151.7" r="5.2" fill="#512500"/><circle cx="570.2" cy="188.9" r="5.2" fill="#512500"/><circle cx="760.4" cy="151.8" r="91" fill="#fff8d9" stroke="#c2b68a" stroke-miterlimit="10" stroke-width="4"/><path fill="#664425" stroke="#512500" stroke-miterlimit="10" stroke-width="4" d="M707.5 77.6v65.6c0 27 37 27 37 0l-.8 24c0 32 45.7 32 45.7 0l-.7-43c0 26 30.7 26 30.7 0l-.2-41.6a90.9 90.9 0 0 0-111.8-5z"/><circle cx="927.2" cy="169.1" r="32.8" fill="#e12400" stroke="#821500" stroke-miterlimit="10" stroke-width="4"/><path fill="none" stroke="#1f5e00" stroke-linecap="round" stroke-linejoin="round" stroke-width="4" d="M927 154.9s-12.5-37.5 17.6-53.4"/><path fill="#c09" d="M33.1 340.7a3.2 3.2 0 0 1-.9-1.9q0-.8 1.4-2.2a2.5 2.5 0 0 1 1.7-.8q.9 0 2.6 1.6a5 5 0 0 0 1.3 1.1 3.1 3.1 0 0 0 1.6.5q3.1 0 3.1-2.5a1.5 1.5 0 0 0-.8-1.3 6.2 6.2 0 0 0-2.1-.7l-2.7-.7-2.7-1.2a5.5 5.5 0 0 1-2.1-2.2 7.3 7.3 0 0 1-.8-3.6 6.9 6.9 0 0 1 2.2-5.1 8 8 0 0 1 5.9-2.2 12.1 12.1 0 0 1 3.6.5 7 7 0 0 1 2.3 1l.8.6a2.6 2.6 0 0 1 1 1.6 3.6 3.6 0 0 1-.8 1.8q-1.1 1.7-2.3 1.6a3.4 3.4 0 0 1-1.7-.7l-.4-.3-.5-.4a3.3 3.3 0 0 0-1.8-.2 3 3 0 0 0-1.8.5 1.7 1.7 0 0 0-.7 1.4 1.7 1.7 0 0 0 .8 1.5 5.2 5.2 0 0 0 2.1.8l2.7.6 2.7 1a4.8 4.8 0 0 1 2.1 2.1 7.2 7.2 0 0 1 .8 3.6 8 8 0 0 1-.9 3.8 6.5 6.5 0 0 1-2.2 2.5 10.2 10.2 0 0 1-5.7 1.7 11.1 11.1 0 0 1-2.9-.4 9.4 9.4 0 0 1-4.7-3zm21.2-11.8a9.1 9.1 0 0 1 12.6 0 9.1 9.1 0 0 1 1.3 11.4 8.9 8.9 0 0 1-3.4 3.1 9.4 9.4 0 0 1-4.2 1 9 9 0 0 1-4.2-1.1 9.4 9.4 0 0 1-3.4-3.2 8.3 8.3 0 0 1-1.4-4.7 8.5 8.5 0 0 1 2.7-6.5zm4.1 8.9a3.5 3.5 0 0 0 2.1.8 3.6 3.6 0 0 0 2.2-.8 3.3 3.3 0 0 0 .1-4.9 3.5 3.5 0 0 0-2.2-.8 3.5 3.5 0 0 0-2.2.8 2.9 2.9 0 0 0-1 2.4 2.8 2.8 0 0 0 1 2.5zm21.9 4.8a1.4 1.4 0 0 1-.6-1.3 5.4 5.4 0 0 1 1.3-2.6 1.3 1.3 0 0 1 1.2-.6 4.8 4.8 0 0 1 2.2.8 5.1 5.1 0 0 0 2.5.8q2 0 2-.8t-2.2-.9a10.8 10.8 0 0 1-4.1-1.6 4.4 4.4 0 0 1-1.6-1.9 6.8 6.8 0 0 1-.6-3q0-5.2 7.2-5.2a11.6 11.6 0 0 1 4.8 1.1q1.2.5 1.2 1.3a3.9 3.9 0 0 1-.7 1.9q-.7 1.2-1.5 1.2l-1.5-.5a5.5 5.5 0 0 0-2.3-.5q-1.9 0-1.9.7t2.2 1.3a12.3 12.3 0 0 1 4.2 1.3 3.7 3.7 0 0 1 1.6 1.6 5.7 5.7 0 0 1 .6 2.9 6.1 6.1 0 0 1-.6 2.9 4.2 4.2 0 0 1-1.8 1.8 12.1 12.1 0 0 1-5.3 1 11.3 11.3 0 0 1-6.3-1.7zm37.2-15.7q2.1.9 2.1 2.3a5.4 5.4 0 0 1-.5 1.8l-.9 2.2-3.6 8.8a3.4 3.4 0 0 1-1.6 2l-1.3.2a2.3 2.3 0 0 1-1.5-.6 3 3 0 0 1-.9-1.2l-.3-.6-1.9-5.1-1 2.6-.8 2.2-.2.6-.3.5-.5.7a2.5 2.5 0 0 1-1.8.8 2.6 2.6 0 0 1-1.7-.6 3 3 0 0 1-.9-1.2l-5-12.1a5.5 5.5 0 0 1-.3-1.3q0-1.3 1.9-2.1a4.8 4.8 0 0 1 1.7-.4 1.9 1.9 0 0 1 1.1.3l.6.6.3.6q.6 1.3 2.3 6.2l1.9-5.3a2.6 2.6 0 0 1 .7-1.2 2.7 2.7 0 0 1 3.6-.4 3.2 3.2 0 0 1 1 1.1l.3.6 1.9 5.3 2-5.5q.8-2.1 2.4-2.1a3.1 3.1 0 0 1 1.2.3zm20.1 6.5a4 4 0 0 1-1 3 3.1 3.1 0 0 1-2.2 1h-7.8a1.8 1.8 0 0 0 1.1 1.6 4.3 4.3 0 0 0 2.2.6 9.1 9.1 0 0 0 3-.4h.4l1.3-.4q1.1 0 1.8 1.5a3.6 3.6 0 0 1 .4 1.5q0 2.9-7 2.9a10.6 10.6 0 0 1-4.3-.8 7.4 7.4 0 0 1-3-2.2 9.5 9.5 0 0 1-2.1-6 8.6 8.6 0 0 1 2.7-6.6 9.5 9.5 0 0 1 6.7-2.5q4.6 0 6.7 3.2a6.7 6.7 0 0 1 1.1 3.6zm-7 1q1.3 0 1.3-1.1a1.5 1.5 0 0 0-.6-1.2 2.6 2.6 0 0 0-1.6-.5 3.3 3.3 0 0 0-2.1.9 2.5 2.5 0 0 0-1.1 1.9zm25.9-1a4 4 0 0 1-1 3 3.1 3.1 0 0 1-2.2 1h-7.8a1.8 1.8 0 0 0 1.1 1.6 4.3 4.3 0 0 0 2.2.6 9.1 9.1 0 0 0 3-.4h.4l1.3-.4q1.1 0 1.8 1.5a3.6 3.6 0 0 1 .4 1.5q0 2.9-7 2.9a10.6 10.6 0 0 1-4.3-.8 7.4 7.4 0 0 1-3-2.2 9.5 9.5 0 0 1-2.1-6 8.6 8.6 0 0 1 2.7-6.6 9.5 9.5 0 0 1 6.7-2.5q4.6 0 6.7 3.2a6.7 6.7 0 0 1 1.1 3.6zm-7 1q1.3 0 1.3-1.1a1.5 1.5 0 0 0-.6-1.2 2.6 2.6 0 0 0-1.6-.5 3.3 3.3 0 0 0-2.1.9 2.5 2.5 0 0 0-1.1 1.9zm18.9-1.8h-2.1v4.4a2.3 2.3 0 0 0 .3 1.3 1.2 1.2 0 0 0 1.1.4h1.2l.9.3q.8.4.8 2.2t-.9 2.5l-.9.3h-1.1a7.7 7.7 0 0 1-5.2-1.6q-1.8-1.6-1.8-5.2v-4.9h-1.4a1.5 1.5 0 0 1-1.2-.6 3 3 0 0 1-.5-1.9 8.3 8.3 0 0 1 .2-2 1.8 1.8 0 0 1 .5-.9 2 2 0 0 1 1.3-.4h1.1v-3.4a9.1 9.1 0 0 1 0-1.1 2.1 2.1 0 0 1 .3-.8q.4-.8 2.5-.8t2.7 1.2a6.2 6.2 0 0 1 .2 1.7v3.2h3.3l.9.3q.9.4.9 2.5t-.9 2.5l-.9.3zm4.6 6.3a1.6 1.6 0 0 1 .9-.7l2.1-.2a2.9 2.9 0 0 1 2.1.6 3.6 3.6 0 0 1 .6 2.5 7.9 7.9 0 0 1-.1 1.3 9.7 9.7 0 0 1-1.8 4.9 4.5 4.5 0 0 1-3.6 2.1q-.2 0-.4-.3a1.9 1.9 0 0 1-.2-.9 2.2 2.2 0 0 1 .1-.9.7.7 0 0 1 .4-.4l.5-.3.7-.9a3.5 3.5 0 0 0 .5-1.6 2.7 2.7 0 0 1-1.6-.7 2.5 2.5 0 0 1-.6-1.9q0-1.3.1-1.7a2.8 2.8 0 0 1 .3-.9zm21.8-3.5a2.7 2.7 0 0 0 .9 2.2 3 3 0 0 0 2 .8 3.4 3.4 0 0 0 1.9-.6 2.9 2.9 0 0 1 1.5-.6q1 0 2.4 1.7a2.9 2.9 0 0 1 .8 1.7q0 1.3-1.8 2.3a7.8 7.8 0 0 1-4.6 1.3 9.5 9.5 0 0 1-5.9-2.2 7.9 7.9 0 0 1-2.2-2.8 8.8 8.8 0 0 1-.9-3.9 8.6 8.6 0 0 1 .9-3.9 7.9 7.9 0 0 1 2.2-2.8 9.2 9.2 0 0 1 5.8-2.2 8.7 8.7 0 0 1 2.4.3l1.7.7.5.3.9.6a1.9 1.9 0 0 1 .9 1.5 3.6 3.6 0 0 1-.7 1.9q-1.2 1.8-2.3 1.8a3.8 3.8 0 0 1-1.8-.7 2.4 2.4 0 0 0-1.7-.6 3.2 3.2 0 0 0-2.1.8 2.7 2.7 0 0 0-.8 2.4zm23.4-8.5a2.2 2.2 0 0 1 1 .7 2.3 2.3 0 0 1 .4 1.5 5.2 5.2 0 0 1-.6 2.3 2 2 0 0 1-1.8 1.3l-1.1-.3a3.3 3.3 0 0 0-1.4-.3 2.6 2.6 0 0 0-1.7.6 1.9 1.9 0 0 0-.8 1.5v6.9a9.7 9.7 0 0 1 0 1.1 2.7 2.7 0 0 1-.3.9q-.5.9-2.6.9a3.6 3.6 0 0 1-2.3-.6 2 2 0 0 1-.6-1.4v-12.4a9.5 9.5 0 0 1 0-1.1 2.7 2.7 0 0 1 .3-.8q.5-.9 2.6-.9t2.5.8a1.9 1.9 0 0 1 .4 1.1l.5-.6 1.3-.9a3.9 3.9 0 0 1 1.8-.6h1.2zm19 6.5a4 4 0 0 1-1 3 3.1 3.1 0 0 1-2.2 1h-7.8a1.8 1.8 0 0 0 1.1 1.6 4.3 4.3 0 0 0 2.2.6 9.1 9.1 0 0 0 3-.4h.4l1.3-.4q1.1 0 1.8 1.5a3.6 3.6 0 0 1 .4 1.5q0 2.9-7 2.9a10.6 10.6 0 0 1-4.3-.8 7.4 7.4 0 0 1-3-2.2 9.5 9.5 0 0 1-2.1-6 8.6 8.6 0 0 1 2.7-6.6 9.5 9.5 0 0 1 6.7-2.5q4.6 0 6.7 3.2a6.7 6.7 0 0 1 1.1 3.6zm-7 1q1.3 0 1.3-1.1a1.5 1.5 0 0 0-.6-1.2 2.6 2.6 0 0 0-1.6-.5 3.3 3.3 0 0 0-2.1.9 2.5 2.5 0 0 0-1.1 1.9zm20.5-5.8q.2-1.8 2.6-1.8l1.9.2a1.4 1.4 0 0 1 .9.7 2.8 2.8 0 0 1 .3.9 9.5 9.5 0 0 1 0 1.1v11.5a9.5 9.5 0 0 1 0 1.1 3.1 3.1 0 0 1-.3.9q-.5.9-2.3.9a4.4 4.4 0 0 1-2.4-.4 1.8 1.8 0 0 1-.7-1.3 4.6 4.6 0 0 1-4.1 1.7 7.2 7.2 0 0 1-5.3-2.6 8.7 8.7 0 0 1 0-12.1 7.3 7.3 0 0 1 5.4-2.6 5.1 5.1 0 0 1 2 .4l1.3.7zm-6 6.9a2.7 2.7 0 0 0 .9 2 2.8 2.8 0 0 0 2.1.9 2.6 2.6 0 0 0 2-.9 2.9 2.9 0 0 0 .8-2 3.1 3.1 0 0 0-.8-2 2.6 2.6 0 0 0-2.1-.9 2.7 2.7 0 0 0-2.1.9 3 3 0 0 0-.8 1.9zm20-6.5a4.4 4.4 0 0 1 3.7-2.3 5.4 5.4 0 0 1 5 2.9l.9-1a7.2 7.2 0 0 1 1.6-1.2 4.6 4.6 0 0 1 2.3-.6 5.6 5.6 0 0 1 4.4 2q1.8 2 1.8 6.7v5.8a9.5 9.5 0 0 1 0 1.1 2.6 2.6 0 0 1-.3.9q-.4.9-2.5.9t-2.5-.9a3.1 3.1 0 0 1-.3-.9 9.5 9.5 0 0 1 0-1.1v-5.8q0-2.9-2-2.9a1.6 1.6 0 0 0-1.6.8 4.6 4.6 0 0 0-.4 2.1v5.8a9.6 9.6 0 0 1 0 1.2 2.7 2.7 0 0 1-.3.9q-.5.9-2.6.9t-2.5-.9a3 3 0 0 1-.3-.9 9.5 9.5 0 0 1 0-1.1v-5.8q0-2.9-2-2.9t-2 2.9v5.8a9.7 9.7 0 0 1 0 1.1 2.7 2.7 0 0 1-.3.9q-.5.9-2.6.9t-2.5-.9a3.1 3.1 0 0 1-.3-.9 9.5 9.5 0 0 1 0-1.2v-11.7a9.5 9.5 0 0 1 0-1.1 2.3 2.3 0 0 1 .3-.8q.5-.9 2.3-.9a3.4 3.4 0 0 1 2.4.6 2.4 2.4 0 0 1 .3 1.6zm37.6-2.1q1.9.9 1.9 2.1a2.5 2.5 0 0 1-.3 1.1l-.3.6-8.5 19.3-.4 1-.6.6a1.6 1.6 0 0 1-1 .3 5 5 0 0 1-1.7-.5q-1.9-.9-1.9-2t3.2-7.6l-6.7-11a3.7 3.7 0 0 1-.7-1.6q0-1.1 1.8-2.1a3.9 3.9 0 0 1 1.7-.7 1.8 1.8 0 0 1 1 .3l.6.5 1.8 3.1 3.1 5.2q.2-.5 1.8-4.1l1.7-3.8.4-.6a1.4 1.4 0 0 1 1.2-.6 4.7 4.7 0 0 1 1.9.5zm32.1 17.3a12 12 0 0 1-5.7-1.5 13.1 13.1 0 0 1-6.3 1.7q-8.5 0-8.5-7.1 0-3.7 3.8-6.8a13.1 13.1 0 0 1-1.3-5.3 5.9 5.9 0 0 1 2-4.9 8.3 8.3 0 0 1 5.3-1.6 7.2 7.2 0 0 1 5 1.6 5.6 5.6 0 0 1 1.7 4.3 5.7 5.7 0 0 1-1.9 4.2 26.4 26.4 0 0 1-3.9 3.1 23.4 23.4 0 0 0 4.2 4.4 9.4 9.4 0 0 0 1.3-2.9q.3-1.5 3-1.5a3.8 3.8 0 0 1 1.7.3q.6.3.7.6a2.6 2.6 0 0 1 0 .8 8.9 8.9 0 0 1-2 5h.9a2.3 2.3 0 0 1 2.6 2.6 3.2 3.2 0 0 1-.6 2.3 3 3 0 0 1-2 .7zm-11.8-4.7h1.5a25.5 25.5 0 0 1-3.6-4.1 3.2 3.2 0 0 0-.8 2q0 2.1 2.9 2.1zm-1-14.7a7.7 7.7 0 0 0 .6 2.7l2.3-1.7a1.8 1.8 0 0 0 .8-1.3q0-1.5-1.6-1.5t-2.1 1.8zm37.5-5.3a1.4 1.4 0 0 1 .9-.7l1.7-.2 1.7.2a1.4 1.4 0 0 1 .9.7 2.8 2.8 0 0 1 .3.9 9.5 9.5 0 0 1 0 1.1v19.7a9.5 9.5 0 0 1 0 1.1 2.3 2.3 0 0 1-.3.8q-.5.9-2.8.9t-2.6-1.6a4.9 4.9 0 0 1-3.9 1.6 7.3 7.3 0 0 1-5.4-2.6 8.7 8.7 0 0 1 0-12.1 7.3 7.3 0 0 1 5.4-2.6 4.6 4.6 0 0 1 3.8 1.6v-6.9a9.5 9.5 0 0 1 0-1.1 2.7 2.7 0 0 1 .3-.8zm-5.4 17.9a2.8 2.8 0 0 0 2.1.9 2.6 2.6 0 0 0 2-.9 2.9 2.9 0 0 0 .8-2 3.1 3.1 0 0 0-.8-2 2.6 2.6 0 0 0-2.1-.9 2.7 2.7 0 0 0-2.1.9 3 3 0 0 0-.8 2 2.8 2.8 0 0 0 .9 2zm30.2-4a4 4 0 0 1-1 3 3.1 3.1 0 0 1-2.2 1h-7.8a1.8 1.8 0 0 0 1.1 1.6 4.3 4.3 0 0 0 2.2.6 9.1 9.1 0 0 0 3-.4h.4l1.3-.4q1.1 0 1.8 1.5a3.6 3.6 0 0 1 .4 1.5q0 2.9-7 2.9a10.6 10.6 0 0 1-4.3-.8 7.4 7.4 0 0 1-3-2.2 9.5 9.5 0 0 1-2.1-6 8.6 8.6 0 0 1 2.7-6.6 9.5 9.5 0 0 1 6.7-2.5q4.6 0 6.7 3.2a6.7 6.7 0 0 1 1.1 3.6zm-7 1q1.3 0 1.3-1.1a1.5 1.5 0 0 0-.6-1.2 2.6 2.6 0 0 0-1.6-.5 3.3 3.3 0 0 0-2.1.9 2.5 2.5 0 0 0-1.1 1.9zm9.2-12.9a9.5 9.5 0 0 1 0-1.1 3 3 0 0 1 .3-.9q.5-.9 2.6-.9t2.5.9a2.6 2.6 0 0 1 .3.9 10 10 0 0 1 0 1.2v15.3a3.5 3.5 0 0 0 .2 1.5q.2.3.9.3h.9l.6.3q.7.4.7 2.3t-.7 2.5-4.1.2q-2.5-.3-3.3-1.7a10.8 10.8 0 0 1-.9-5.1zm16.2 2a1.4 1.4 0 0 1-.9.7l-1.7.2-1.7-.2a1.4 1.4 0 0 1-.9-.7 2.8 2.8 0 0 1-.3-.9 13 13 0 0 1 0-2.3 2.7 2.7 0 0 1 .3-.8q.5-.9 2.6-.9t2.5.9a2.6 2.6 0 0 1 .3.9 13 13 0 0 1 0 2.3 2.7 2.7 0 0 1-.2.8zm-5.4 6.1a9.5 9.5 0 0 1 0-1.1 3 3 0 0 1 .3-.9q.5-.9 2.6-.9a3.5 3.5 0 0 1 2.2.6 1.8 1.8 0 0 1 .6 1.4v12.5a9.5 9.5 0 0 1 0 1.1 2.6 2.6 0 0 1-.3.9q-.4.9-2.5.9t-2.5-.9a3.1 3.1 0 0 1-.3-.9 9.5 9.5 0 0 1 0-1.2zm13.8 5.8a2.7 2.7 0 0 0 .9 2.2 3 3 0 0 0 2 .8 3.4 3.4 0 0 0 1.9-.6 2.9 2.9 0 0 1 1.5-.6q1 0 2.4 1.7a2.9 2.9 0 0 1 .8 1.7q0 1.3-1.8 2.3a7.8 7.8 0 0 1-4.6 1.3 9.5 9.5 0 0 1-5.9-2.2 7.9 7.9 0 0 1-2.2-2.8 8.8 8.8 0 0 1-.9-3.9 8.6 8.6 0 0 1 .9-3.9 7.9 7.9 0 0 1 2.2-2.8 9.2 9.2 0 0 1 5.8-2.2 8.7 8.7 0 0 1 2.4.3l1.7.7.5.3.9.6a1.9 1.9 0 0 1 .9 1.5 3.6 3.6 0 0 1-.7 1.9q-1.2 1.8-2.3 1.8a3.8 3.8 0 0 1-1.8-.7 2.4 2.4 0 0 0-1.7-.6 3.2 3.2 0 0 0-2.1.8 2.7 2.7 0 0 0-.8 2.4zm17.1-11.9a1.4 1.4 0 0 1-.9.7l-1.7.2-1.7-.2a1.4 1.4 0 0 1-.9-.7 2.8 2.8 0 0 1-.3-.9 13 13 0 0 1 0-2.3 2.7 2.7 0 0 1 .3-.8q.5-.9 2.6-.9t2.5.9a2.6 2.6 0 0 1 .3.9 13 13 0 0 1 0 2.3 2.7 2.7 0 0 1-.2.8zm-5.4 6.1a9.5 9.5 0 0 1 0-1.1 3 3 0 0 1 .3-.9q.5-.9 2.6-.9a3.5 3.5 0 0 1 2.2.6 1.8 1.8 0 0 1 .6 1.4v12.5a9.5 9.5 0 0 1 0 1.1 2.6 2.6 0 0 1-.3.9q-.4.9-2.5.9t-2.5-.9a3.1 3.1 0 0 1-.3-.9 9.5 9.5 0 0 1 0-1.2zm10.6-.7a9.1 9.1 0 0 1 12.6 0 9.1 9.1 0 0 1 1.3 11.4 8.9 8.9 0 0 1-3.4 3.1 9.4 9.4 0 0 1-4.2 1 9 9 0 0 1-4.2-1.1 9.4 9.4 0 0 1-3.4-3.2 8.3 8.3 0 0 1-1.4-4.7 8.5 8.5 0 0 1 2.7-6.5zm4.1 8.9a3.5 3.5 0 0 0 2.1.8 3.6 3.6 0 0 0 2.2-.8 3.3 3.3 0 0 0 .1-4.9 3.5 3.5 0 0 0-2.2-.8 3.5 3.5 0 0 0-2.2.8 2.9 2.9 0 0 0-1 2.4 2.8 2.8 0 0 0 1.1 2.5zm21.2 6.3a7 7 0 0 1-5.5-2.5 9.1 9.1 0 0 1-2.2-6.2v-5.8a9.5 9.5 0 0 1 0-1.2 3.1 3.1 0 0 1 .3-.9q.5-.9 2.6-.9t2.7 1.3a5.2 5.2 0 0 1 .2 1.7v5.8a2.7 2.7 0 0 0 2.9 2.9 2.9 2.9 0 0 0 2.1-.8 2.8 2.8 0 0 0 .8-2.1v-5.8a9.5 9.5 0 0 1 0-1.1 2.6 2.6 0 0 1 .3-.9q.4-.9 2.5-.9t2.5.9a3.1 3.1 0 0 1 .3.9 9.5 9.5 0 0 1 0 1.1v11.7a9.2 9.2 0 0 1 0 1.1 2.3 2.3 0 0 1-.3.8q-.5.9-2.5.9t-2.5-.8a2.6 2.6 0 0 1-.3-1.4l-.6.7-.9.7a4.4 4.4 0 0 1-2.4.8zm12.4-1.5a1.4 1.4 0 0 1-.6-1.3 5.4 5.4 0 0 1 1.3-2.6 1.3 1.3 0 0 1 1.2-.6 4.8 4.8 0 0 1 2.2.8 5.1 5.1 0 0 0 2.5.8q2 0 2-.8t-2.2-.9a10.8 10.8 0 0 1-4.1-1.6 4.4 4.4 0 0 1-1.6-1.9 6.8 6.8 0 0 1-.6-3q0-5.2 7.2-5.2a11.6 11.6 0 0 1 4.8 1.1q1.2.5 1.2 1.3a3.9 3.9 0 0 1-.7 1.9q-.7 1.2-1.5 1.2l-1.5-.5a5.5 5.5 0 0 0-2.3-.5q-1.9 0-1.9.7t2.2 1.3a12.3 12.3 0 0 1 4.2 1.3 3.7 3.7 0 0 1 1.6 1.6 5.7 5.7 0 0 1 .6 2.9 6.1 6.1 0 0 1-.6 2.9 4.2 4.2 0 0 1-1.8 1.8 12.1 12.1 0 0 1-5.3 1 11.3 11.3 0 0 1-6.3-1.7zm29.8-19.1a1.4 1.4 0 0 1-.9.7l-1.7.2-1.7-.2a1.4 1.4 0 0 1-.9-.7 2.8 2.8 0 0 1-.3-.9 13 13 0 0 1 0-2.3 2.7 2.7 0 0 1 .3-.8q.5-.9 2.6-.9t2.5.9a2.6 2.6 0 0 1 .3.9 13 13 0 0 1 0 2.3 2.7 2.7 0 0 1-.2.8zm-5.4 6.1a9.5 9.5 0 0 1 0-1.1 3 3 0 0 1 .3-.9q.5-.9 2.6-.9a3.5 3.5 0 0 1 2.2.6 1.8 1.8 0 0 1 .6 1.4v12.5a9.5 9.5 0 0 1 0 1.1 2.6 2.6 0 0 1-.3.9q-.4.9-2.5.9t-2.5-.9a3.1 3.1 0 0 1-.3-.9 9.5 9.5 0 0 1 0-1.2zm18.5 3h-2.1v4.4a2.3 2.3 0 0 0 .3 1.3 1.2 1.2 0 0 0 1.1.4h1.2l.9.3q.8.4.8 2.2t-.9 2.5l-.9.3h-1.1a7.7 7.7 0 0 1-5.2-1.6q-1.8-1.6-1.8-5.2v-4.9h-1.4a1.5 1.5 0 0 1-1.2-.6 3 3 0 0 1-.5-1.9 8.3 8.3 0 0 1 .2-2 1.8 1.8 0 0 1 .5-.9 2 2 0 0 1 1.3-.4h1.1v-3.4a9.1 9.1 0 0 1 0-1.1 2.1 2.1 0 0 1 .3-.8q.4-.8 2.5-.8t2.7 1.2a6.2 6.2 0 0 1 .2 1.7v3.2h3.3l.9.3q.9.4.9 2.5t-.9 2.5l-.9.3zm9.8-12a2.7 2.7 0 0 1 .6 1.9v.5a8.1 8.1 0 0 1-.1 1.2 9.7 9.7 0 0 1-1.7 5 4.5 4.5 0 0 1-3.8 2.1q-.2 0-.4-.3a2 2 0 0 1-.2-.9 2.1 2.1 0 0 1 .1-.9c.1-.2.2-.3.3-.4h.3l.4-.2.5-.4a3.8 3.8 0 0 0 .6-2.1 2.8 2.8 0 0 1-1.7-.7 3.6 3.6 0 0 1-.5-2.4 4.5 4.5 0 0 1 .3-2 1.7 1.7 0 0 1 1-.9l2.1-.2a3.1 3.1 0 0 1 2.2.7zm8.8 17.7a2.1 2.1 0 0 1 1.6.6 3.5 3.5 0 0 1 .5 2.3 3.5 3.5 0 0 1-.6 2.3 2.2 2.2 0 0 1-1.6.6q-3.3 0-4.7-1.6t-1.4-5.3v-15.8a9.5 9.5 0 0 1 0-1.1 3 3 0 0 1 .3-.9q.5-.9 2.6-.9t2.5.9a2.4 2.4 0 0 1 .3.8 9.5 9.5 0 0 1 0 1.1v15.8q.2 1.2.5 1.2zm8.9-.2a2.8 2.8 0 0 0 1.4.2 2.9 2.9 0 0 1 1.8.6 2.8 2.8 0 0 1 .7 2.3 2.8 2.8 0 0 1-.8 2.3 3.6 3.6 0 0 1-2.2.6q-7 0-7-6.9v-15.8a9.5 9.5 0 0 1 0-1.1 2.6 2.6 0 0 1 .3-.9q.5-.9 2.6-.9t2.5.9a4.5 4.5 0 0 1 .4 2v15.8a1 1 0 0 0 .3.9zm-508.3 23a9.5 9.5 0 0 1 0-1.1 3 3 0 0 1 .3-.9q.5-.9 2.6-.9t2.5.9a2.6 2.6 0 0 1 .3.9 10 10 0 0 1 0 1.2v15.3a3.5 3.5 0 0 0 .2 1.5q.2.3.9.3h.9l.6.3q.7.4.7 2.3t-.7 2.5-4.1.2q-2.5-.3-3.3-1.7a10.8 10.8 0 0 1-.9-5.1zm16.2 2a1.4 1.4 0 0 1-.9.7l-1.7.2-1.7-.2a1.4 1.4 0 0 1-.9-.7 2.8 2.8 0 0 1-.3-.9 13 13 0 0 1 0-2.3 2.7 2.7 0 0 1 .3-.8q.5-.9 2.6-.9t2.5.9a2.6 2.6 0 0 1 .3.9 13 13 0 0 1 0 2.3 2.7 2.7 0 0 1-.2.8zm-5.4 6.1a9.5 9.5 0 0 1 0-1.1 3 3 0 0 1 .3-.9q.5-.9 2.6-.9a3.5 3.5 0 0 1 2.2.6 1.8 1.8 0 0 1 .6 1.4v12.5a9.5 9.5 0 0 1 0 1.1 2.6 2.6 0 0 1-.3.9q-.4.9-2.5.9t-2.5-.9a3.1 3.1 0 0 1-.3-.9 9.5 9.5 0 0 1 0-1.2zm18.5 3h-2.2v4.6a2.3 2.3 0 0 0 .3 1.3 1.2 1.2 0 0 0 1.1.4h1.2l.9.3q.8.4.8 2.2t-.9 2.5l-.9.3h-1.2a7.7 7.7 0 0 1-5.2-1.6q-1.8-1.6-1.8-5.2v-5h-1.4a1.5 1.5 0 0 1-1.2-.6 3 3 0 0 1-.5-1.9 8.3 8.3 0 0 1 .2-2 1.8 1.8 0 0 1 .5-.9 2 2 0 0 1 1.3-.4h1.1v-3.4a9.1 9.1 0 0 1 0-1.1 2.1 2.1 0 0 1 .3-.8q.4-.8 2.5-.8t2.7 1.2a6.2 6.2 0 0 1 .2 1.7v3.2h3.3l.9.3q.9.4.9 2.5t-.9 2.5l-.9.3zm20.8.8a4 4 0 0 1-1 3 3.1 3.1 0 0 1-2.2 1h-7.9a1.8 1.8 0 0 0 1.1 1.6 4.3 4.3 0 0 0 2.2.6 9.1 9.1 0 0 0 3-.4h.4l1.3-.4q1.1 0 1.8 1.5a3.7 3.7 0 0 1 .4 1.5q0 2.9-7 2.9a10.6 10.6 0 0 1-4.3-.8 7.4 7.4 0 0 1-3-2.2 9.5 9.5 0 0 1-2.1-6 8.6 8.6 0 0 1 2.7-6.6A9.5 9.5 0 0 1 75 366q4.6 0 6.7 3.2a6.7 6.7 0 0 1 1.2 3.8zm-7 1q1.3 0 1.3-1.1a1.5 1.5 0 0 0-.6-1.2 2.6 2.6 0 0 0-1.6-.5 3.3 3.3 0 0 0-2.1.9 2.5 2.5 0 0 0-1.1 1.9zm20.9-7.5a2.2 2.2 0 0 1 1 .7 2.3 2.3 0 0 1 .4 1.5 5.2 5.2 0 0 1-.6 2.3 2 2 0 0 1-1.8 1.3l-1.1-.3a3.3 3.3 0 0 0-1.4-.3 2.6 2.6 0 0 0-1.7.6 1.9 1.9 0 0 0-.8 1.5v6.9a9.7 9.7 0 0 1 0 1.1 2.7 2.7 0 0 1-.3.9q-.5.9-2.6.9a3.6 3.6 0 0 1-2.3-.6 2 2 0 0 1-.6-1.4v-12.4a9.5 9.5 0 0 1 0-1.1 2.7 2.7 0 0 1 .3-.8q.5-.9 2.6-.9t2.5.8a1.9 1.9 0 0 1 .4 1.1l.5-.6 1.3-.9a3.9 3.9 0 0 1 1.8-.6h1.3zm13.6 1.7q.2-1.8 2.6-1.8l1.9.2a1.4 1.4 0 0 1 .9.7 2.8 2.8 0 0 1 .3.9 9.5 9.5 0 0 1 0 1.1v11.6a9.5 9.5 0 0 1 0 1.1 3 3 0 0 1-.3.9q-.5.9-2.3.9a4.5 4.5 0 0 1-2.4-.4 1.8 1.8 0 0 1-.7-1.3 4.6 4.6 0 0 1-4.1 1.7 7.2 7.2 0 0 1-5.3-2.6 8.6 8.6 0 0 1-2.4-6.1 8.5 8.5 0 0 1 2.5-6 7.3 7.3 0 0 1 5.4-2.6 5.1 5.1 0 0 1 2 .4l1.3.7zm-6 6.9a2.7 2.7 0 0 0 .9 2 2.8 2.8 0 0 0 2.1.9 2.6 2.6 0 0 0 2-.9 2.9 2.9 0 0 0 .8-2 3.1 3.1 0 0 0-.8-2 2.6 2.6 0 0 0-2.1-.9 2.7 2.7 0 0 0-2.1.9 3 3 0 0 0-.8 1.9zm20.5 2.8a2.1 2.1 0 0 1 1.6.6 3.5 3.5 0 0 1 .5 2.3 3.5 3.5 0 0 1-.6 2.3 2.2 2.2 0 0 1-1.6.6q-3.3 0-4.7-1.6t-1.4-5.3V361a9.5 9.5 0 0 1 0-1.1 3 3 0 0 1 .3-.9q.5-.9 2.6-.9t2.5.9a2.4 2.4 0 0 1 .3.8 9.5 9.5 0 0 1 0 1.1v15.8q.2 1.2.5 1.2zm8.9-.2a2.8 2.8 0 0 0 1.4.2 2.9 2.9 0 0 1 1.8.6 2.8 2.8 0 0 1 .7 2.3 2.8 2.8 0 0 1-.8 2.3 3.6 3.6 0 0 1-2.2.6q-7 0-7-6.9V361a9.5 9.5 0 0 1 0-1.1 2.6 2.6 0 0 1 .3-.9q.5-.9 2.6-.9t2.5.9a4.5 4.5 0 0 1 .4 2v15.8a1 1 0 0 0 .2.9zm21.8-11.2q1.9.9 1.9 2.1a2.5 2.5 0 0 1-.3 1.1l-.3.6-8.6 19.3-.4 1-.6.6a1.6 1.6 0 0 1-1 .3 5 5 0 0 1-1.7-.5q-1.9-.9-1.9-2t3.2-7.6l-6.6-11.1a3.7 3.7 0 0 1-.7-1.6q0-1.1 1.8-2.1a3.9 3.9 0 0 1 1.7-.7 1.8 1.8 0 0 1 1 .3l.6.5 1.8 3.1 3.1 5.2q.2-.5 1.8-4.1l1.7-3.8.4-.6a1.4 1.4 0 0 1 1.2-.6 4.7 4.7 0 0 1 1.9.6zm17.8 2.1a4.4 4.4 0 0 1 3.7-2.3 5.4 5.4 0 0 1 5 2.9l.9-1a7.2 7.2 0 0 1 1.6-1.2 4.6 4.6 0 0 1 2.3-.6 5.6 5.6 0 0 1 4.4 2q1.8 2 1.8 6.7v5.8a9.5 9.5 0 0 1 0 1.1 2.6 2.6 0 0 1-.3.9q-.4.9-2.5.9t-2.5-.9a3 3 0 0 1-.3-.9 9.5 9.5 0 0 1 0-1.1V375q0-2.9-2-2.9a1.6 1.6 0 0 0-1.6.8 4.6 4.6 0 0 0-.4 2.1v5.8a9.6 9.6 0 0 1 0 1.2 2.7 2.7 0 0 1-.3.9q-.5.9-2.6.9t-2.5-.9a3 3 0 0 1-.3-.9 9.5 9.5 0 0 1 0-1.1V375q0-2.9-2-2.9t-2 2.9v5.8a9.7 9.7 0 0 1 0 1.1 2.7 2.7 0 0 1-.3.9q-.5.9-2.6.9t-2.5-.9a3.1 3.1 0 0 1-.3-.9 9.5 9.5 0 0 1 0-1.2v-11.5a9.5 9.5 0 0 1 0-1.1 2.3 2.3 0 0 1 .3-.8q.5-.9 2.3-.9a3.4 3.4 0 0 1 2.4.6 2.4 2.4 0 0 1 .3 1.6zm39.2 4.4a4 4 0 0 1-1 3 3.1 3.1 0 0 1-2.2 1h-7.8a1.8 1.8 0 0 0 1.1 1.6 4.3 4.3 0 0 0 2.2.6 9.1 9.1 0 0 0 3-.4h.4l1.3-.4q1.1 0 1.8 1.5a3.7 3.7 0 0 1 .4 1.5q0 2.9-7 2.9a10.6 10.6 0 0 1-4.3-.8 7.4 7.4 0 0 1-3-2.2 9.5 9.5 0 0 1-2.1-6 8.6 8.6 0 0 1 2.7-6.6 9.5 9.5 0 0 1 6.7-2.5q4.6 0 6.7 3.2a6.7 6.7 0 0 1 1.1 3.6zm-7 1q1.3 0 1.3-1.1a1.5 1.5 0 0 0-.6-1.2 2.6 2.6 0 0 0-1.6-.5 3.3 3.3 0 0 0-2.1.9 2.5 2.5 0 0 0-1.1 1.9zm9.1-12.9a9.5 9.5 0 0 1 0-1.1 3 3 0 0 1 .3-.9q.5-.9 2.6-.9t2.5.9a2.6 2.6 0 0 1 .3.9 10 10 0 0 1 0 1.2v15.3a3.5 3.5 0 0 0 .2 1.5q.2.3.9.3h.9l.6.3q.7.4.7 2.3t-.7 2.5-4.1.2q-2.5-.3-3.3-1.7a10.8 10.8 0 0 1-.9-5.1zm19.6 11.1h-2.1v4.6a2.3 2.3 0 0 0 .3 1.3 1.2 1.2 0 0 0 1.1.4h1.2l.9.3q.8.4.8 2.2t-.9 2.5l-.9.3h-1.1a7.7 7.7 0 0 1-5.2-1.6q-1.8-1.6-1.8-5.2v-5h-1.4a1.5 1.5 0 0 1-1.2-.6 3 3 0 0 1-.5-1.9 8.3 8.3 0 0 1 .2-2 1.8 1.8 0 0 1 .5-.9 2 2 0 0 1 1.3-.4h1.1v-3.4a9.1 9.1 0 0 1 0-1.1 2.1 2.1 0 0 1 .3-.8q.4-.8 2.5-.8t2.7 1.2a6.2 6.2 0 0 1 .2 1.7v3.2h3.3l.9.3q.9.4.9 2.5t-.9 2.5l-.9.3zm18.5-9.1a1.4 1.4 0 0 1-.9.7l-1.7.2-1.7-.2a1.4 1.4 0 0 1-.9-.7 2.8 2.8 0 0 1-.3-.9 13 13 0 0 1 0-2.3 2.7 2.7 0 0 1 .3-.8q.5-.9 2.6-.9t2.5.9a2.6 2.6 0 0 1 .3.9 13 13 0 0 1 0 2.3 2.7 2.7 0 0 1-.2.8zm-5.4 6.1a9.5 9.5 0 0 1 0-1.1 3 3 0 0 1 .3-.9q.5-.9 2.6-.9a3.5 3.5 0 0 1 2.2.6 1.8 1.8 0 0 1 .6 1.4v12.5a9.5 9.5 0 0 1 0 1.1 2.6 2.6 0 0 1-.3.9q-.4.9-2.5.9t-2.5-.9a3.1 3.1 0 0 1-.3-.9 9.5 9.5 0 0 1 0-1.2zm18-2.9a7 7 0 0 1 5.5 2.5 9.1 9.1 0 0 1 2.2 6.2v5.8a9.5 9.5 0 0 1 0 1.1 2.7 2.7 0 0 1-.3.8q-.5.9-2.6.9t-2.7-1.2a5.4 5.4 0 0 1-.2-1.7V375a2.7 2.7 0 0 0-2.9-2.9 2.9 2.9 0 0 0-2.1.8 2.8 2.8 0 0 0-.8 2.1v5.8a9.5 9.5 0 0 1 0 1.1 2.3 2.3 0 0 1-.3.8q-.4.9-2.5.9t-2.5-.9a3 3 0 0 1-.3-.9 9.5 9.5 0 0 1 0-1.1v-11.6a9.2 9.2 0 0 1 0-1.1 2.3 2.3 0 0 1 .3-.8q.5-.8 2.5-.8t2.5.8a2.6 2.6 0 0 1 .3 1.4l.6-.7.9-.7a4.3 4.3 0 0 1 2.4-.9zm34.9.2q1.9.9 1.9 2.1a2.5 2.5 0 0 1-.3 1.1l-.3.6-8.6 19.3-.4 1-.6.6a1.6 1.6 0 0 1-1 .3 5 5 0 0 1-1.7-.5q-1.9-.9-1.9-2t3.2-7.6l-6.6-11a3.7 3.7 0 0 1-.7-1.6q0-1.1 1.8-2.1a3.9 3.9 0 0 1 1.7-.7 1.8 1.8 0 0 1 1 .3l.6.5 1.8 3.1 3.1 5.2q.2-.5 1.8-4.1l1.7-3.8.4-.6a1.4 1.4 0 0 1 1.2-.6 4.7 4.7 0 0 1 1.9.5zm6 2a9.1 9.1 0 0 1 12.6 0 9.1 9.1 0 0 1 1.3 11.4 8.9 8.9 0 0 1-3.4 3.1 9.3 9.3 0 0 1-4.2 1 9 9 0 0 1-4.2-1.1 9.4 9.4 0 0 1-3.4-3.2 8.3 8.3 0 0 1-1.4-4.7 8.5 8.5 0 0 1 2.7-6.5zm4.1 8.9a3.5 3.5 0 0 0 2.1.8 3.6 3.6 0 0 0 2.2-.8 3.3 3.3 0 0 0 .1-4.9 3.5 3.5 0 0 0-2.2-.8 3.5 3.5 0 0 0-2.2.8 2.9 2.9 0 0 0-1 2.4 2.8 2.8 0 0 0 1.1 2.5zm21.2 6.3a7 7 0 0 1-5.5-2.5 9.1 9.1 0 0 1-2.2-6.2v-5.8a9.5 9.5 0 0 1 0-1.2 3.1 3.1 0 0 1 .3-.9q.5-.9 2.6-.9t2.7 1.3a5.2 5.2 0 0 1 .2 1.7v5.8a2.7 2.7 0 0 0 2.9 2.9 2.9 2.9 0 0 0 2.1-.8 2.8 2.8 0 0 0 .8-2.1v-5.8a9.5 9.5 0 0 1 0-1.1 2.6 2.6 0 0 1 .3-.9q.4-.9 2.5-.9t2.5.9a3.1 3.1 0 0 1 .3.9 9.5 9.5 0 0 1 0 1.1v11.7a9.1 9.1 0 0 1 0 1.1 2.4 2.4 0 0 1-.3.8q-.5.9-2.5.9t-2.5-.8a2.6 2.6 0 0 1-.3-1.4l-.6.7-.9.7a4.4 4.4 0 0 1-2.4.8zm24.1-17.2a2.2 2.2 0 0 1 1 .7 2.3 2.3 0 0 1 .4 1.5 5.2 5.2 0 0 1-.6 2.3 2 2 0 0 1-1.8 1.3l-1.1-.3a3.3 3.3 0 0 0-1.4-.3 2.6 2.6 0 0 0-1.7.6 1.9 1.9 0 0 0-.8 1.5v6.9a9.7 9.7 0 0 1 0 1.1 2.7 2.7 0 0 1-.3.9q-.5.9-2.6.9a3.6 3.6 0 0 1-2.3-.6 2 2 0 0 1-.6-1.4v-12.4a9.5 9.5 0 0 1 0-1.1 2.7 2.7 0 0 1 .3-.8q.5-.9 2.6-.9t2.5.8a1.9 1.9 0 0 1 .4 1.1l.5-.6 1.3-.9a3.9 3.9 0 0 1 1.8-.6h1.3zm17.3 2.1a4.4 4.4 0 0 1 3.7-2.3 5.4 5.4 0 0 1 5 2.9l.9-1a7.2 7.2 0 0 1 1.6-1.2 4.6 4.6 0 0 1 2.3-.6 5.6 5.6 0 0 1 4.4 2q1.8 2 1.8 6.7v5.8a9.5 9.5 0 0 1 0 1.1 2.6 2.6 0 0 1-.3.9q-.4.9-2.5.9t-2.5-.9a3 3 0 0 1-.3-.9 9.5 9.5 0 0 1 0-1.1V375q0-2.9-2-2.9a1.6 1.6 0 0 0-1.6.8 4.6 4.6 0 0 0-.4 2.1v5.8a9.6 9.6 0 0 1 0 1.2 2.7 2.7 0 0 1-.3.9q-.5.9-2.6.9t-2.5-.9a3 3 0 0 1-.3-.9 9.5 9.5 0 0 1 0-1.1V375q0-2.9-2-2.9t-2 2.9v5.8a9.7 9.7 0 0 1 0 1.1 2.7 2.7 0 0 1-.3.9q-.5.9-2.6.9t-2.5-.9a3.1 3.1 0 0 1-.3-.9 9.5 9.5 0 0 1 0-1.2v-11.5a9.5 9.5 0 0 1 0-1.1 2.3 2.3 0 0 1 .3-.8q.5-.9 2.3-.9a3.4 3.4 0 0 1 2.4.6 2.4 2.4 0 0 1 .3 1.6zm24.6-.1a9.1 9.1 0 0 1 12.6 0 9.1 9.1 0 0 1 1.3 11.4 8.9 8.9 0 0 1-3.4 3.1 9.3 9.3 0 0 1-4.2 1 9 9 0 0 1-4.2-1.1 9.4 9.4 0 0 1-3.4-3.2 8.3 8.3 0 0 1-1.4-4.7 8.5 8.5 0 0 1 2.7-6.5zm4.1 8.9a3.5 3.5 0 0 0 2.1.8 3.6 3.6 0 0 0 2.2-.8 3.3 3.3 0 0 0 .1-4.9 3.5 3.5 0 0 0-2.2-.8 3.5 3.5 0 0 0-2.2.8 2.9 2.9 0 0 0-1 2.4 2.8 2.8 0 0 0 1.1 2.5zm21.2 6.3a7 7 0 0 1-5.5-2.5 9.1 9.1 0 0 1-2.2-6.2v-5.8a9.5 9.5 0 0 1 0-1.2 3.1 3.1 0 0 1 .3-.9q.5-.9 2.6-.9t2.7 1.3a5.2 5.2 0 0 1 .2 1.7v5.8a2.7 2.7 0 0 0 2.9 2.9 2.9 2.9 0 0 0 2.1-.8 2.8 2.8 0 0 0 .8-2.1v-5.8a9.5 9.5 0 0 1 0-1.1 2.6 2.6 0 0 1 .3-.9q.4-.9 2.5-.9t2.5.9a3.1 3.1 0 0 1 .3.9 9.5 9.5 0 0 1 0 1.1v11.7a9.1 9.1 0 0 1 0 1.1 2.4 2.4 0 0 1-.3.8q-.5.9-2.5.9t-2.5-.8a2.6 2.6 0 0 1-.3-1.4l-.6.7-.9.7a4.4 4.4 0 0 1-2.4.8zm22.4-11.5h-2.1v4.6a2.3 2.3 0 0 0 .3 1.3 1.2 1.2 0 0 0 1.1.4h1.2l.9.3q.8.4.8 2.2t-.9 2.5l-.9.3h-1.1a7.7 7.7 0 0 1-5.2-1.6q-1.8-1.6-1.8-5.2v-5H436a1.5 1.5 0 0 1-1.2-.6 3 3 0 0 1-.5-1.9 8.3 8.3 0 0 1 .2-2 1.8 1.8 0 0 1 .5-.9 2 2 0 0 1 1.3-.4h1.1v-3.4a9.1 9.1 0 0 1 0-1.1 2.1 2.1 0 0 1 .3-.8q.4-.8 2.5-.8t2.7 1.2a6.2 6.2 0 0 1 .2 1.7v3.2h3.3l.9.3q.9.4.9 2.5t-.9 2.5l-.9.3zm14.3-5.8a7 7 0 0 1 5.5 2.5 9 9 0 0 1 2.2 6.1v5.8a9.7 9.7 0 0 1 0 1.1 2.7 2.7 0 0 1-.3.9q-.4.9-2.5.9t-2.5-.9a2.6 2.6 0 0 1-.3-.9 10.5 10.5 0 0 1 0-1.2V375a2.9 2.9 0 0 0-.8-2.1 2.6 2.6 0 0 0-1.9-.8 3.2 3.2 0 0 0-2.1.7 2.5 2.5 0 0 0-1 1.6v6.4a9.5 9.5 0 0 1 0 1.1 2.6 2.6 0 0 1-.3.9q-.4.9-2.5.9t-2.5-.9a3.1 3.1 0 0 1-.3-.9 9.5 9.5 0 0 1 0-1.2v-19.6a9.5 9.5 0 0 1 0-1.1 2.7 2.7 0 0 1 .3-.8q.5-.9 2.6-.9t2.5.9a2.6 2.6 0 0 1 .3.9 9.5 9.5 0 0 1 0 1.1v7.3a4.9 4.9 0 0 1 3.6-2.1zm10.7 12.3a1.7 1.7 0 0 1 1-.9 7.1 7.1 0 0 1 2.1-.2 2.9 2.9 0 0 1 2.1.6 2.7 2.7 0 0 1 .6 2v.5a9.9 9.9 0 0 1 0 1.2 3 3 0 0 1-.3.9q-.5 1-2.5 1a3.9 3.9 0 0 1-2.6-.6 3.6 3.6 0 0 1-.6-2.5 4.4 4.4 0 0 1 .2-2zm4.4-3.8l-1.7.2-1.7-.2a1.3 1.3 0 0 1-.9-.6 2.2 2.2 0 0 1-.3-.8 7.5 7.5 0 0 1 0-1V362a8 8 0 0 1 0-1 2.1 2.1 0 0 1 .3-.8 1.5 1.5 0 0 1 .9-.6l1.7-.2 1.7.2a1.4 1.4 0 0 1 .9.6 2.4 2.4 0 0 1 .3.8 8 8 0 0 1 0 1v10.5a7.6 7.6 0 0 1 0 1 2 2 0 0 1-.3.7 1.4 1.4 0 0 1-.9.7z"/><path fill="#990073" d="M35 421.5a26.2 26.2 0 0 1 .1-3.1 7.2 7.2 0 0 1 .9-2.4q1.3-2.4 7-2.4t7.5 3.3a17.9 17.9 0 0 1 .4 4.7v50a26 26 0 0 1-.1 3.2 7.3 7.3 0 0 1-.9 2.3q-1.3 2.4-7 2.4t-7.4-3.4a14.1 14.1 0 0 1-.5-4.6zm38 34.4a7.3 7.3 0 0 0 2.5 5.9 8.2 8.2 0 0 0 5.4 2.1 9.3 9.3 0 0 0 5.3-1.7 7.9 7.9 0 0 1 4-1.7q2.7 0 6.6 4.8a7.9 7.9 0 0 1 2.1 4.7q0 3.4-4.9 6.4a21.4 21.4 0 0 1-12.7 3.6q-8.4 0-16.1-6a21.4 21.4 0 0 1-6-7.7 24 24 0 0 1-2.3-10.6 23.4 23.4 0 0 1 2.3-10.5 21.6 21.6 0 0 1 6-7.6 25.2 25.2 0 0 1 15.9-5.9 23.7 23.7 0 0 1 6.7.9 22.3 22.3 0 0 1 4.8 1.8l1.4.9 2.5 1.7a5.1 5.1 0 0 1 2.3 4.1 9.7 9.7 0 0 1-1.9 5.2q-3.2 4.9-6.2 5t-4.9-2a6.5 6.5 0 0 0-4.6-1.5 8.7 8.7 0 0 0-5.6 2.2 7.3 7.3 0 0 0-2.6 5.9zm76.1-5.7q0 5.5-2.7 8.2a8.6 8.6 0 0 1-6.1 2.7h-21.4q0 2.5 3 4.2a11.8 11.8 0 0 0 5.9 1.7 24.8 24.8 0 0 0 8.2-1.1l1-.4a9.1 9.1 0 0 1 3.6-1q2.9 0 5 4a10 10 0 0 1 1.2 4.1q0 8-19.2 8a28.9 28.9 0 0 1-11.8-2.3 20.1 20.1 0 0 1-8.1-6.1 25.9 25.9 0 0 1-5.7-16.3q0-11.3 7.3-18.1t18.3-6.8q12.5 0 18.4 8.8a18.3 18.3 0 0 1 3.1 10.4zm-19 2.7q3.4 0 3.4-2.9a4.1 4.1 0 0 0-1.6-3.3 7.1 7.1 0 0 0-4.5-1.3 9.1 9.1 0 0 0-5.8 2.4q-2.9 2.4-2.9 5.1zm62.4 3a7.3 7.3 0 0 0 2.5 5.9 8.2 8.2 0 0 0 5.4 2.1 9.3 9.3 0 0 0 5.3-1.7 7.9 7.9 0 0 1 4-1.7q2.7 0 6.6 4.8a7.9 7.9 0 0 1 2.1 4.7q0 3.4-4.9 6.4a21.4 21.4 0 0 1-12.6 3.6q-8.4 0-16.1-6a21.4 21.4 0 0 1-6-7.7 24 24 0 0 1-2.3-10.6 23.4 23.4 0 0 1 2.3-10.5 21.6 21.6 0 0 1 6-7.6 25.2 25.2 0 0 1 15.9-5.9 23.7 23.7 0 0 1 6.7.9 22.3 22.3 0 0 1 4.8 1.8l1.4.9 2.4 1.7a5.1 5.1 0 0 1 2.3 4.1 9.7 9.7 0 0 1-1.9 5.2q-3.2 4.9-6.2 5t-4.9-2a6.5 6.5 0 0 0-4.6-1.5 8.7 8.7 0 0 0-5.6 2.2 7.3 7.3 0 0 0-2.6 5.9zm63.9-23.2a6.1 6.1 0 0 1 2.8 1.8 6.4 6.4 0 0 1 1.1 4.2 14.2 14.2 0 0 1-1.7 6.3q-1.7 3.4-4.9 3.4a7 7 0 0 1-3.1-.7 9 9 0 0 0-3.9-.7 7.1 7.1 0 0 0-4.5 1.7 5.2 5.2 0 0 0-2.1 4.1v18.9a26.2 26.2 0 0 1-.1 3.1 7.2 7.2 0 0 1-.9 2.4q-1.4 2.3-7 2.3t-6.2-1.5a5.4 5.4 0 0 1-1.6-3.9V440a26.2 26.2 0 0 1 .1-3.1 7.4 7.4 0 0 1 .8-2.3q1.3-2.4 7-2.4t6.8 2.1a5.2 5.2 0 0 1 1 3l1.3-1.5a16.7 16.7 0 0 1 3.6-2.4 10.5 10.5 0 0 1 4.9-1.5l3.6.2zm52 17.5q0 5.5-2.7 8.2a8.6 8.6 0 0 1-6.1 2.7h-21.4q0 2.5 3 4.2a11.8 11.8 0 0 0 5.9 1.7 24.8 24.8 0 0 0 8.2-1.1l1-.4a9.1 9.1 0 0 1 3.6-1q2.9 0 5 4a10 10 0 0 1 1.2 4.1q0 8-19.2 8a28.9 28.9 0 0 1-11.8-2.3 20.1 20.1 0 0 1-8.1-6.1 25.9 25.9 0 0 1-5.7-16.3q0-11.3 7.3-18.1t18.3-6.8q12.5 0 18.4 8.8a18.3 18.3 0 0 1 3.1 10.4zm-19 2.7q3.4 0 3.4-2.9a4.1 4.1 0 0 0-1.6-3.3 7.1 7.1 0 0 0-4.5-1.3 9.1 9.1 0 0 0-5.8 2.4q-2.9 2.4-2.9 5.1zm55.6-15.7q.5-5 7.1-5a18.6 18.6 0 0 1 5.2.5 3.8 3.8 0 0 1 2.4 1.9 7.7 7.7 0 0 1 .8 2.4 26.2 26.2 0 0 1 .1 3.1v31.5a26.2 26.2 0 0 1-.1 3.1 8.3 8.3 0 0 1-.8 2.4q-1.3 2.3-6.2 2.3t-6.6-1.2a4.9 4.9 0 0 1-1.9-3.6q-3.3 4.8-11.1 4.8t-14.4-7.1a23.7 23.7 0 0 1 0-33q6.7-7.1 14.7-7.1a14 14 0 0 1 5.6 1.1 10 10 0 0 1 5.1 3.9zm-16.4 18.7a7.5 7.5 0 0 0 2.3 5.4 7.6 7.6 0 0 0 5.7 2.4 7.2 7.2 0 0 0 5.5-2.4 7.8 7.8 0 0 0 2.2-5.4 8.3 8.3 0 0 0-2.1-5.4 7 7 0 0 0-5.7-2.5 7.3 7.3 0 0 0-5.8 2.5 8.2 8.2 0 0 0-2.1 5.4zm54.7-17.4q4.2-6.4 10.2-6.4a14.8 14.8 0 0 1 13.7 7.8 30.6 30.6 0 0 1 2.4-2.8 19.6 19.6 0 0 1 4.5-3.2 12.5 12.5 0 0 1 6.3-1.8 15.4 15.4 0 0 1 12.1 5.5q4.9 5.5 4.9 18.3v15.8a26.2 26.2 0 0 1-.1 3.1 7.2 7.2 0 0 1-.9 2.4q-1.2 2.4-6.9 2.4t-6.9-2.5a8.3 8.3 0 0 1-.8-2.4 26.2 26.2 0 0 1-.1-3.1v-15.8q0-7.8-5.6-7.8-3.2 0-4.3 2.1a12.4 12.4 0 0 0-1.1 5.8v15.8a26 26 0 0 1-.1 3.2 7.2 7.2 0 0 1-.9 2.3q-1.3 2.4-7 2.4t-6.9-2.5a8.3 8.3 0 0 1-.8-2.4 26.2 26.2 0 0 1-.1-3.1v-15.8q0-7.8-5.6-7.8t-5.4 7.8v15.9a26.1 26.1 0 0 1-.1 3.1 7.2 7.2 0 0 1-.9 2.4q-1.4 2.3-7 2.3t-6.9-2.4a8.4 8.4 0 0 1-.8-2.3 25.8 25.8 0 0 1-.1-3.2V440a25.9 25.9 0 0 1 .1-3.1 6.4 6.4 0 0 1 .9-2.3q1.4-2.4 6.4-2.4t6.6 1.6a6.6 6.6 0 0 1 1.2 4.7z"/><path fill="#c09" d="M692.6 405.5h13.7l1.1.4q1.1.6 1.1 3.1t-1.5 3.3a6.7 6.7 0 0 1-2.1.2H689q-2.8 0-3.3-1.5a6.3 6.3 0 0 1-.2-2v-22.2a3.9 3.9 0 0 1 .8-2.8 4.2 4.2 0 0 1 2.9-.7h17.1l1.1.4q1.1.6 1.1 3.1t-1.5 3.3a6.7 6.7 0 0 1-2.1.2h-12.3v4h9.3l1.1.4q1.1.6 1.1 3.1t-1.5 3.3a6.7 6.7 0 0 1-2.1.2h-7.8zm30.1-14a8.5 8.5 0 0 1 6.7 3.1 11 11 0 0 1 2.7 7.5v7a11.4 11.4 0 0 1-.1 1.4 3.2 3.2 0 0 1-.3 1q-.6 1.1-3.1 1.1t-3.3-1.5a6.5 6.5 0 0 1-.2-2v-7a3.2 3.2 0 0 0-3.5-3.5 3.5 3.5 0 0 0-2.6 1 3.4 3.4 0 0 0-1 2.5v7.1a11.8 11.8 0 0 1-.1 1.4 2.9 2.9 0 0 1-.4 1q-.5 1.1-3.1 1.1t-3.1-1.1a3.7 3.7 0 0 1-.3-1.1 11.8 11.8 0 0 1-.1-1.4v-14.2a11.4 11.4 0 0 1 .1-1.3 2.8 2.8 0 0 1 .4-1q.6-1 3.1-1t3 .9a3.2 3.2 0 0 1 .4 1.6l.7-.8 1.1-.8a5.2 5.2 0 0 1 3-1z"/><path fill="#c09" d="M736.8 391.7a6.6 6.6 0 0 1 2-.2 6.4 6.4 0 0 1 2 .2 1.7 1.7 0 0 1 1 .8 3.3 3.3 0 0 1 .4 1 11.9 11.9 0 0 1 .1 1.4v16.5a9.4 9.4 0 0 1-3.2 7.5 10.7 10.7 0 0 1-7.1 2.8h-1.4l-1-.3q-1-.6-1-2.9t.9-3a4 4 0 0 1 2.3-.6 4.3 4.3 0 0 0 2.6-.8 3.3 3.3 0 0 0 1.1-2.9v-16.6a4.3 4.3 0 0 1 .4-2.1 1.9 1.9 0 0 1 .9-.8zm3.9-3.3l-2 .2a6.4 6.4 0 0 1-2-.2 1.7 1.7 0 0 1-1-.8 3.2 3.2 0 0 1-.4-1 11.4 11.4 0 0 1-.1-1.4 10.9 10.9 0 0 1 .1-1.4 3.2 3.2 0 0 1 .3-1q.6-1 3.1-1t3 1a2.9 2.9 0 0 1 .3 1 10.8 10.8 0 0 1 .1 1.3v.2a10.8 10.8 0 0 1-.1 1.3 2.9 2.9 0 0 1-.4 1 1.7 1.7 0 0 1-1 .8zm7.4 5.8a11 11 0 0 1 15.3 0A11 11 0 0 1 765 408a10.8 10.8 0 0 1-4.2 3.8 11.3 11.3 0 0 1-5.1 1.2 10.9 10.9 0 0 1-5.1-1.3 11.3 11.3 0 0 1-4.2-3.8 10.1 10.1 0 0 1-1.7-5.7 10.3 10.3 0 0 1 3.4-8zm5 10.8a4.2 4.2 0 0 0 2.6 1 4.4 4.4 0 0 0 2.6-1 4 4 0 0 0 .1-5.9 4.3 4.3 0 0 0-2.7-1 4.2 4.2 0 0 0-2.7 1 3.6 3.6 0 0 0-1.2 2.9 3.4 3.4 0 0 0 1.3 3zm34.6-13.2q2.4 1 2.4 2.5a3 3 0 0 1-.3 1.4l-.3.7-10.5 23.4-.5 1.2a2.5 2.5 0 0 1-.7.8 1.9 1.9 0 0 1-1.2.4 6 6 0 0 1-2.1-.6q-2.4-1-2.4-2.5t3.8-9.2l-8-13.4a4.5 4.5 0 0 1-.8-2q0-1.3 2.2-2.6a4.7 4.7 0 0 1 2.1-.8 2.2 2.2 0 0 1 1.2.3l.7.7 2.2 3.7 3.8 6.3q.2-.6 2.2-4.9l2.1-4.6.5-.7a1.7 1.7 0 0 1 1.5-.7 5.7 5.7 0 0 1 2.1.6zm33.7-7.3a1.9 1.9 0 0 1 1.1-.9l1.9-.2 1.8.2 1 .5a1.6 1.6 0 0 1 .5.8 6.3 6.3 0 0 1 .2 2v22.2a11.8 11.8 0 0 1-.1 1.4 3.3 3.3 0 0 1-.4 1q-.6 1.1-3.1 1.1a6.6 6.6 0 0 1-2.2-.2 2.3 2.3 0 0 1-1-.8l-11.8-15.7v13.2a11.5 11.5 0 0 1-.1 1.4 3.2 3.2 0 0 1-.4 1q-.6 1.1-3.1 1.1t-3-1.1a3.2 3.2 0 0 1-.4-1.1 12.1 12.1 0 0 1-.1-1.4v-22.3a4.9 4.9 0 0 1 .4-2.2 1.9 1.9 0 0 1 1.1-.9l2-.2 1.9.2 1 .5.9 1 11.5 15.2v-13.6a4.9 4.9 0 0 1 .4-2.2zm12.6 9.7a11 11 0 0 1 15.3 0 11 11 0 0 1 1.6 13.8 10.8 10.8 0 0 1-4.2 3.8 11.3 11.3 0 0 1-5.1 1.2 10.9 10.9 0 0 1-5.1-1.3 11.3 11.3 0 0 1-4.2-3.8 10.1 10.1 0 0 1-1.7-5.7 10.3 10.3 0 0 1 3.4-8zm5 10.8a4.2 4.2 0 0 0 2.6 1 4.4 4.4 0 0 0 2.6-1 4 4 0 0 0 .1-5.9 4.3 4.3 0 0 0-2.7-1 4.2 4.2 0 0 0-2.7 1 3.6 3.6 0 0 0-1.2 2.9 3.4 3.4 0 0 0 1.3 3zm42.4-13.3q2.6 1.1 2.6 2.8a6.5 6.5 0 0 1-.6 2.2l-1.1 2.6-4.5 10.7a4.1 4.1 0 0 1-2 2.5 3.6 3.6 0 0 1-1.5.3 2.8 2.8 0 0 1-1.8-.7 3.6 3.6 0 0 1-1.1-1.4l-.3-.7-2.4-6.2-1.2 3.1-1 2.7-.3.7-.3.7-.6.8a3 3 0 0 1-2.2 1 3.1 3.1 0 0 1-2.1-.7 3.6 3.6 0 0 1-1.1-1.4l-6-14.7a6.7 6.7 0 0 1-.4-1.6q0-1.6 2.3-2.5a5.9 5.9 0 0 1 2.1-.5 2.3 2.3 0 0 1 1.3.3l.7.7.3.7q.7 1.6 2.8 7.5l2.4-6.5a3.1 3.1 0 0 1 .9-1.4 3.2 3.2 0 0 1 4.4-.5 3.8 3.8 0 0 1 1.2 1.3l.3.7q2 5.6 2.4 6.4l2.4-6.6q1-2.6 2.9-2.6a3.7 3.7 0 0 1 1.5.3zm5.1 14.8a2.1 2.1 0 0 1 1.2-1.1 8.6 8.6 0 0 1 2.6-.3 3.5 3.5 0 0 1 2.5.8 3.2 3.2 0 0 1 .8 2.4v.6a12.3 12.3 0 0 1-.1 1.4 3.6 3.6 0 0 1-.4 1.1q-.6 1.2-3.1 1.2t-3.2-.8a4.3 4.3 0 0 1-.8-3 5.3 5.3 0 0 1 .5-2.3zm5.4-4.7l-2 .2-2-.2a1.6 1.6 0 0 1-1.1-.7 2.7 2.7 0 0 1-.4-.9 9 9 0 0 1-.1-1.2v-12.7a9.5 9.5 0 0 1 .1-1.3 2.5 2.5 0 0 1 .4-.9 1.8 1.8 0 0 1 1.1-.7l2-.2 2 .2a1.7 1.7 0 0 1 1.1.8 2.8 2.8 0 0 1 .4 1 9.5 9.5 0 0 1 .1 1.3V399a9 9 0 0 1-.1 1.2 2.4 2.4 0 0 1-.4.9 1.7 1.7 0 0 1-1.1.8z"/><rect width="268.4" height="90.49" x="656.1" y="354.6" fill="none" stroke="#990073" stroke-miterlimit="10" stroke-width="6" rx="30.6" ry="30.6"/></svg>